<?xml version="1.0" encoding="UTF-8" standalone="no"?>
<!-- Created with Inkscape (http://www.inkscape.org/) -->

<svg
   width="53.803196mm"
   height="35.515408mm"
   viewBox="0 0 53.803195 35.515408"
   version="1.1"
   id="svg1"
   inkscape:version="1.4.2 (f4327f4, 2025-05-13)"
   sodipodi:docname="China Classification Society Logo.svg"
   xmlns:inkscape="http://www.inkscape.org/namespaces/inkscape"
   xmlns:sodipodi="http://sodipodi.sourceforge.net/DTD/sodipodi-0.dtd"
   xmlns="http://www.w3.org/2000/svg"
   xmlns:svg="http://www.w3.org/2000/svg">
  <sodipodi:namedview
     id="namedview1"
     pagecolor="#ffffff"
     bordercolor="#000000"
     borderopacity="0.25"
     inkscape:showpageshadow="2"
     inkscape:pageopacity="0.0"
     inkscape:pagecheckerboard="0"
     inkscape:deskcolor="#d1d1d1"
     inkscape:document-units="mm"
     inkscape:zoom="2.8284271"
     inkscape:cx="146.90143"
     inkscape:cy="62.755727"
     inkscape:window-width="2560"
     inkscape:window-height="1369"
     inkscape:window-x="-8"
     inkscape:window-y="-8"
     inkscape:window-maximized="1"
     inkscape:current-layer="layer1" />
  <defs
     id="defs1">
    <clipPath
       clipPathUnits="userSpaceOnUse"
       id="clipPath17">
      <path
         d="M 0,0 H 708.661 V 708.661 H 0 Z"
         transform="matrix(1.3333333,0,0,-1.3333333,0,944.88133)"
         id="path17" />
    </clipPath>
    <clipPath
       clipPathUnits="userSpaceOnUse"
       id="clipPath15">
      <path
         d="m 572.383,42.693 h 85.464 v 121.266 h -85.464 z"
         transform="translate(-601.99072,-95.004305)"
         id="path15" />
    </clipPath>
    <clipPath
       clipPathUnits="userSpaceOnUse"
       id="clipPath19">
      <path
         d="M 0,0 H 708.661 V 708.661 H 0 Z"
         transform="translate(-590.52341,-106.3499)"
         id="path19" />
    </clipPath>
    <clipPath
       clipPathUnits="userSpaceOnUse"
       id="clipPath21">
      <path
         d="M 0,0 H 708.661 V 708.661 H 0 Z"
         transform="translate(-652.48022,-96.711605)"
         id="path21" />
    </clipPath>
    <clipPath
       clipPathUnits="userSpaceOnUse"
       id="clipPath23">
      <path
         d="M 0,0 H 708.661 V 708.661 H 0 Z"
         transform="translate(-642.24532,-105.9842)"
         id="path23" />
    </clipPath>
    <clipPath
       clipPathUnits="userSpaceOnUse"
       id="clipPath25">
      <path
         d="M 0,0 H 708.661 V 708.661 H 0 Z"
         transform="translate(-632.36372,-85.854005)"
         id="path25" />
    </clipPath>
    <clipPath
       clipPathUnits="userSpaceOnUse"
       id="clipPath27">
      <path
         d="M 0,0 H 708.661 V 708.661 H 0 Z"
         transform="translate(-592.84031,-78.537102)"
         id="path27" />
    </clipPath>
    <clipPath
       clipPathUnits="userSpaceOnUse"
       id="clipPath29">
      <path
         d="M 0,0 H 708.661 V 708.661 H 0 Z"
         transform="translate(-629.07422,-95.004305)"
         id="path29" />
    </clipPath>
    <clipPath
       clipPathUnits="userSpaceOnUse"
       id="clipPath31">
      <path
         d="M 0,0 H 708.661 V 708.661 H 0 Z"
         transform="translate(-617.60632,-106.3499)"
         id="path31" />
    </clipPath>
    <clipPath
       clipPathUnits="userSpaceOnUse"
       id="clipPath33">
      <path
         d="M 0,0 H 708.661 V 708.661 H 0 Z"
         transform="translate(-619.92251,-78.537102)"
         id="path33" />
    </clipPath>
    <clipPath
       clipPathUnits="userSpaceOnUse"
       id="clipPath35">
      <path
         d="M 0,0 H 708.661 V 708.661 H 0 Z"
         transform="translate(-648.71951,-69.324102)"
         id="path35" />
    </clipPath>
    <clipPath
       clipPathUnits="userSpaceOnUse"
       id="clipPath37">
      <path
         d="M 0,0 H 708.661 V 708.661 H 0 Z"
         transform="translate(-577.57981,-61.339902)"
         id="path37" />
    </clipPath>
    <clipPath
       clipPathUnits="userSpaceOnUse"
       id="clipPath39">
      <path
         d="M 0,0 H 708.661 V 708.661 H 0 Z"
         transform="translate(-594.77902,-62.334304)"
         id="path39" />
    </clipPath>
    <clipPath
       clipPathUnits="userSpaceOnUse"
       id="clipPath41">
      <path
         d="M 0,0 H 708.661 V 708.661 H 0 Z"
         id="path41" />
    </clipPath>
    <clipPath
       clipPathUnits="userSpaceOnUse"
       id="clipPath43">
      <path
         d="M 0,0 H 708.661 V 708.661 H 0 Z"
         transform="translate(-610.43081,-61.654204)"
         id="path43" />
    </clipPath>
    <clipPath
       clipPathUnits="userSpaceOnUse"
       id="clipPath45">
      <path
         d="M 0,0 H 708.661 V 708.661 H 0 Z"
         transform="translate(-611.85592,-58.591001)"
         id="path45" />
    </clipPath>
    <clipPath
       clipPathUnits="userSpaceOnUse"
       id="clipPath47">
      <path
         d="M 0,0 H 708.661 V 708.661 H 0 Z"
         transform="translate(-615.26572,-59.680099)"
         id="path47" />
    </clipPath>
    <clipPath
       clipPathUnits="userSpaceOnUse"
       id="clipPath49">
      <path
         d="M 0,0 H 708.661 V 708.661 H 0 Z"
         transform="translate(-615.49072,-58.896101)"
         id="path49" />
    </clipPath>
    <clipPath
       clipPathUnits="userSpaceOnUse"
       id="clipPath51">
      <path
         d="M 0,0 H 708.661 V 708.661 H 0 Z"
         transform="translate(-630.93262,-62.801202)"
         id="path51" />
    </clipPath>
    <clipPath
       clipPathUnits="userSpaceOnUse"
       id="clipPath53">
      <path
         d="M 0,0 H 708.661 V 708.661 H 0 Z"
         transform="translate(-626.97112,-56.783801)"
         id="path53" />
    </clipPath>
    <clipPath
       clipPathUnits="userSpaceOnUse"
       id="clipPath55">
      <path
         d="M 0,0 H 708.661 V 708.661 H 0 Z"
         transform="translate(-631.38772,-62.374999)"
         id="path55" />
    </clipPath>
    <clipPath
       clipPathUnits="userSpaceOnUse"
       id="clipPath57">
      <path
         d="M 0,0 H 708.661 V 708.661 H 0 Z"
         transform="translate(-642.42352,-61.199104)"
         id="path57" />
    </clipPath>
    <clipPath
       clipPathUnits="userSpaceOnUse"
       id="clipPath59">
      <path
         d="M 0,0 H 708.661 V 708.661 H 0 Z"
         transform="translate(-645.56582,-59.570801)"
         id="path59" />
    </clipPath>
    <clipPath
       clipPathUnits="userSpaceOnUse"
       id="clipPath61">
      <path
         d="M 0,0 H 708.661 V 708.661 H 0 Z"
         id="path61" />
    </clipPath>
    <clipPath
       clipPathUnits="userSpaceOnUse"
       id="clipPath63">
      <path
         d="M 0,0 H 708.661 V 708.661 H 0 Z"
         transform="translate(-649.02761,-62.902399)"
         id="path63" />
    </clipPath>
    <clipPath
       clipPathUnits="userSpaceOnUse"
       id="clipPath65">
      <path
         d="M 0,0 H 708.661 V 708.661 H 0 Z"
         transform="translate(-596.54141,-61.716102)"
         id="path65" />
    </clipPath>
    <clipPath
       clipPathUnits="userSpaceOnUse"
       id="clipPath67">
      <path
         d="M 0,0 H 708.661 V 708.661 H 0 Z"
         transform="translate(-600.34462,-59.084104)"
         id="path67" />
    </clipPath>
    <clipPath
       clipPathUnits="userSpaceOnUse"
       id="clipPath69">
      <path
         d="M 0,0 H 708.661 V 708.661 H 0 Z"
         transform="translate(-611.84342,-61.312302)"
         id="path69" />
    </clipPath>
  </defs>
  <g
     inkscape:label="图层 1"
     inkscape:groupmode="layer"
     id="layer1"
     transform="translate(-123.33876,-87.694051)">
    <g
       id="group-MC0"
       transform="matrix(0.52916665,0,0,0.52916665,-284.17445,-337.26988)">
      <g
         id="g16"
         clip-path="url(#clipPath17)">
        <path
           d="m 0,0 c 0,0 -0.491,-0.731 -1.465,-0.731 -0.974,0 -1.709,0.613 -1.709,1.586 0,0.975 -1.095,6.587 -6.22,8.172 v 2.196 c 0,0 4.76,-1.707 5.612,-1.831 0.852,-0.121 2.069,1.954 2.803,1.588 C -0.243,10.616 0,10.003 0,9.516 Z"
           style="fill:#e60012;fill-opacity:1;fill-rule:nonzero;stroke:none"
           transform="matrix(1.3333333,0,0,-1.3333333,802.65427,818.20893)"
           clip-path="url(#clipPath15)"
           id="path16" />
      </g>
      <path
         id="path18"
         d="m 0,0 c 0,0 -12.69,-0.847 -12.69,-15.369 0,-14.519 12.811,-14.64 12.811,-14.64 v 2.196 c 0,0 -2.561,0.365 -2.561,3.783 v 17.688 c 0,3.417 2.44,4.023 2.44,4.023 z"
         style="fill:#00428e;fill-opacity:1;fill-rule:nonzero;stroke:none"
         transform="matrix(1.3333333,0,0,-1.3333333,787.36453,803.08147)"
         clip-path="url(#clipPath19)" />
      <path
         id="path20"
         d="m 0,0 c 0,0 -0.233,-0.973 -1.328,-0.973 -1.095,0 -1.216,1.464 -1.216,1.464 0,0 -0.984,5.736 -5.739,6.465 v 2.56 c 0,0 3.903,-0.98 5.368,-1.707 0.735,-0.366 1.466,1.219 1.466,1.219 0,0 1.465,0.25 1.465,-0.851 C 0.016,7.077 0,0 0,0"
         style="fill:#e60012;fill-opacity:1;fill-rule:nonzero;stroke:none"
         transform="matrix(1.3333333,0,0,-1.3333333,869.9736,815.93253)"
         clip-path="url(#clipPath21)" />
      <path
         id="path22"
         d="m 0,0 c 0,0 -10.003,-0.126 -10.003,-9.395 0,-7.564 8.051,-9.515 8.051,-9.515 0,0 6.104,-1.218 6.104,-4.999 0,-2.682 -3.296,-3.538 -3.296,-3.538 v -2.318 c 0,0 10.733,0.608 10.733,9.881 0,7.686 -9.637,10.369 -9.637,10.369 0,0 -4.634,0.983 -4.634,4.517 0,2.316 2.682,2.803 2.682,2.803 z"
         style="fill:#00428e;fill-opacity:1;fill-rule:nonzero;stroke:none"
         transform="matrix(1.3333333,0,0,-1.3333333,856.32707,803.56907)"
         clip-path="url(#clipPath23)" />
      <path
         id="path24"
         d="m 0,0 c 0,0 0,1.215 1.095,1.215 1.095,0 1.461,-1.71 1.461,-1.71 0,0 1.226,-5.976 5.982,-6.705 v -2.319 c 0,0 -3.903,0.981 -5.369,1.709 -0.735,0.367 -1.465,-1.222 -1.465,-1.222 0,0 -1.709,-0.247 -1.709,0.852 C -0.005,-7.079 0,0 0,0"
         style="fill:#00428e;fill-opacity:1;fill-rule:nonzero;stroke:none"
         transform="matrix(1.3333333,0,0,-1.3333333,843.1516,830.40933)"
         clip-path="url(#clipPath25)" />
      <path
         id="path26"
         d="m 0,0 c 0,0 5.617,0.977 6.712,5.368 0,0 0.117,1.704 1.581,1.096 1.466,-0.61 0.736,-1.829 0.736,-1.829 0,0 -1.343,-5.731 -9.029,-6.832 z"
         style="fill:#00428e;fill-opacity:1;fill-rule:nonzero;stroke:none"
         transform="matrix(1.3333333,0,0,-1.3333333,790.45373,840.1652)"
         clip-path="url(#clipPath27)" />
      <path
         id="path28"
         d="m 0,0 c 0,0 -0.492,-0.731 -1.466,-0.731 -0.973,0 -1.708,0.613 -1.708,1.586 0,0.975 -1.095,6.587 -6.221,8.172 v 2.196 c 0,0 4.761,-1.707 5.612,-1.831 0.853,-0.121 2.069,1.954 2.804,1.588 C -0.243,10.616 0,10.003 0,9.516 Z"
         style="fill:#e60012;fill-opacity:1;fill-rule:nonzero;stroke:none"
         transform="matrix(1.3333333,0,0,-1.3333333,838.7656,818.20893)"
         clip-path="url(#clipPath29)" />
      <path
         id="path30"
         d="m 0,0 c 0,0 -12.69,-0.847 -12.69,-15.369 0,-14.519 12.812,-14.64 12.812,-14.64 v 2.196 c 0,0 -2.561,0.365 -2.561,3.783 v 17.688 c 0,3.417 2.439,4.023 2.439,4.023 z"
         style="fill:#00428e;fill-opacity:1;fill-rule:nonzero;stroke:none"
         transform="matrix(1.3333333,0,0,-1.3333333,823.47507,803.08147)"
         clip-path="url(#clipPath31)" />
      <path
         id="path32"
         d="m 0,0 c 0,0 5.617,0.977 6.713,5.368 0,0 0.117,1.704 1.582,1.096 1.464,-0.61 0.734,-1.829 0.734,-1.829 0,0 -1.343,-5.731 -9.029,-6.832 z"
         style="fill:#00428e;fill-opacity:1;fill-rule:nonzero;stroke:none"
         transform="matrix(1.3333333,0,0,-1.3333333,826.56333,840.1652)"
         clip-path="url(#clipPath33)" />
      <path
         id="path34"
         d="M 0,0 V -1.229 H -0.865 V 0 l -1.061,1.661 v -0.68 h -0.88 v -2.21 H -3.67 v 2.21 h -0.88 v 0.724 h 3.555 l 0.563,-0.99 0.565,0.99 h 0.953 z m -4.683,-1.229 h -2.356 v 2.934 h 2.314 V 1.079 H -6.173 V 0.612 h 1.344 V 0.014 h -1.344 v -0.578 h 1.49 z m -2.837,0 h -0.865 v 2.934 h 0.865 z m -1.422,0.402 c -0.109,-0.149 -0.245,-0.262 -0.407,-0.338 -0.162,-0.076 -0.368,-0.114 -0.619,-0.114 -0.303,0 -0.551,0.046 -0.744,0.139 -0.192,0.093 -0.359,0.256 -0.498,0.489 -0.14,0.233 -0.21,0.532 -0.21,0.896 0,0.486 0.123,0.859 0.369,1.119 0.246,0.261 0.593,0.391 1.043,0.391 0.352,0 0.629,-0.074 0.83,-0.224 0.202,-0.149 0.351,-0.379 0.449,-0.688 L -9.491,0.665 c -0.027,0.089 -0.055,0.154 -0.084,0.196 -0.048,0.069 -0.107,0.122 -0.177,0.16 -0.07,0.037 -0.148,0.056 -0.235,0.056 -0.195,0 -0.345,-0.083 -0.45,-0.248 -0.078,-0.123 -0.118,-0.315 -0.118,-0.578 0,-0.325 0.047,-0.548 0.141,-0.669 0.094,-0.12 0.227,-0.18 0.397,-0.18 0.165,0 0.29,0.048 0.374,0.146 0.085,0.097 0.146,0.238 0.184,0.424 l 0.757,-0.24 c -0.051,-0.223 -0.131,-0.409 -0.24,-0.559 m -2.87,0.243 c -0.11,-0.219 -0.269,-0.39 -0.477,-0.512 -0.208,-0.122 -0.467,-0.183 -0.777,-0.183 -0.315,0 -0.576,0.053 -0.782,0.158 -0.207,0.106 -0.374,0.272 -0.502,0.501 -0.129,0.228 -0.193,0.513 -0.193,0.856 0,0.479 0.127,0.852 0.381,1.119 0.254,0.267 0.608,0.4 1.062,0.4 0.465,0 0.823,-0.131 1.075,-0.393 0.252,-0.262 0.377,-0.63 0.377,-1.102 0,-0.343 -0.055,-0.624 -0.164,-0.844 m -3.069,-0.211 c -0.099,-0.158 -0.238,-0.279 -0.416,-0.361 -0.177,-0.082 -0.402,-0.123 -0.672,-0.123 -0.476,0 -0.805,0.096 -0.988,0.288 -0.183,0.192 -0.286,0.436 -0.311,0.733 l 0.822,0.054 c 0.018,-0.14 0.054,-0.247 0.109,-0.32 0.089,-0.119 0.216,-0.178 0.381,-0.178 0.123,0 0.218,0.03 0.285,0.091 0.067,0.06 0.1,0.131 0.1,0.211 0,0.076 -0.032,0.144 -0.095,0.204 -0.064,0.06 -0.211,0.117 -0.443,0.17 -0.378,0.089 -0.648,0.208 -0.81,0.356 -0.162,0.148 -0.244,0.337 -0.244,0.567 0,0.15 0.042,0.293 0.125,0.427 0.083,0.134 0.209,0.239 0.376,0.316 0.167,0.077 0.396,0.115 0.687,0.115 0.357,0 0.629,-0.069 0.817,-0.209 0.187,-0.139 0.299,-0.361 0.334,-0.665 l -0.814,-0.05 c -0.021,0.132 -0.067,0.228 -0.136,0.288 -0.069,0.06 -0.165,0.09 -0.287,0.09 -0.1,0 -0.176,-0.022 -0.227,-0.067 -0.051,-0.045 -0.076,-0.099 -0.076,-0.163 0,-0.047 0.021,-0.089 0.063,-0.126 0.04,-0.039 0.137,-0.075 0.29,-0.109 0.377,-0.085 0.647,-0.171 0.811,-0.259 0.163,-0.087 0.282,-0.196 0.356,-0.325 0.074,-0.129 0.112,-0.274 0.112,-0.434 0,-0.188 -0.05,-0.362 -0.149,-0.521 m -3.847,-0.434 h -0.814 l -1.046,1.611 V -1.229 H -21.4 v 2.934 h 0.806 l 1.052,-1.623 v 1.623 h 0.814 z m -3.171,0.645 c -0.11,-0.219 -0.269,-0.39 -0.477,-0.512 -0.208,-0.122 -0.466,-0.183 -0.776,-0.183 -0.316,0 -0.576,0.053 -0.783,0.158 -0.207,0.106 -0.374,0.272 -0.502,0.501 -0.128,0.228 -0.193,0.513 -0.193,0.856 0,0.479 0.127,0.852 0.382,1.119 0.254,0.267 0.608,0.4 1.061,0.4 0.465,0 0.824,-0.131 1.075,-0.393 0.252,-0.262 0.378,-0.63 0.378,-1.102 0,-0.343 -0.055,-0.624 -0.165,-0.844 m -3.105,-0.645 h -0.865 v 2.934 h 0.865 z m -1.154,2.21 h -0.88 v -2.21 h -0.864 v 2.21 h -0.881 v 0.724 h 2.625 z m -3.219,-2.21 -0.14,0.485 h -0.98 l -0.136,-0.485 h -0.882 l 1.05,2.934 h 0.942 l 1.05,-2.934 z m -2.381,0.402 c -0.109,-0.149 -0.245,-0.262 -0.407,-0.338 -0.162,-0.076 -0.368,-0.114 -0.618,-0.114 -0.304,0 -0.552,0.046 -0.745,0.139 -0.192,0.093 -0.358,0.256 -0.498,0.489 -0.14,0.233 -0.21,0.532 -0.21,0.896 0,0.486 0.123,0.859 0.369,1.119 0.246,0.261 0.594,0.391 1.044,0.391 0.352,0 0.628,-0.074 0.83,-0.224 0.201,-0.149 0.351,-0.379 0.449,-0.688 l -0.763,-0.178 c -0.026,0.089 -0.054,0.154 -0.083,0.196 -0.049,0.069 -0.108,0.122 -0.178,0.16 -0.07,0.037 -0.148,0.056 -0.234,0.056 -0.196,0 -0.346,-0.083 -0.45,-0.248 -0.079,-0.123 -0.118,-0.315 -0.118,-0.578 0,-0.325 0.047,-0.548 0.141,-0.669 0.094,-0.12 0.226,-0.18 0.396,-0.18 0.165,0 0.29,0.048 0.375,0.146 0.084,0.097 0.146,0.238 0.184,0.424 l 0.756,-0.24 c -0.05,-0.223 -0.131,-0.409 -0.24,-0.559 m -2.86,-0.402 h -0.865 v 2.934 h 0.865 z m -1.228,2.304 h -1.267 V 0.562 h 1.082 V -0.03 h -1.082 v -1.199 h -0.868 v 2.934 h 2.135 z m -2.621,-2.304 h -0.865 v 2.934 h 0.865 z m -1.347,0.434 c -0.099,-0.158 -0.237,-0.279 -0.415,-0.361 -0.178,-0.082 -0.402,-0.123 -0.673,-0.123 -0.475,0 -0.804,0.096 -0.987,0.288 -0.183,0.192 -0.287,0.436 -0.311,0.733 l 0.821,0.054 c 0.018,-0.14 0.054,-0.247 0.109,-0.32 0.089,-0.119 0.216,-0.178 0.381,-0.178 0.124,0 0.219,0.03 0.285,0.091 0.067,0.06 0.1,0.131 0.1,0.211 0,0.076 -0.031,0.144 -0.095,0.204 -0.064,0.06 -0.211,0.117 -0.442,0.17 -0.379,0.089 -0.649,0.208 -0.81,0.356 -0.163,0.148 -0.244,0.337 -0.244,0.567 0,0.15 0.041,0.293 0.125,0.427 0.083,0.134 0.208,0.239 0.375,0.316 0.167,0.077 0.396,0.115 0.687,0.115 0.357,0 0.63,-0.069 0.817,-0.209 0.187,-0.139 0.299,-0.361 0.335,-0.665 l -0.814,-0.05 c -0.022,0.132 -0.067,0.228 -0.137,0.288 -0.069,0.06 -0.165,0.09 -0.287,0.09 -0.1,0 -0.175,-0.022 -0.226,-0.067 -0.051,-0.045 -0.077,-0.099 -0.077,-0.163 0,-0.047 0.021,-0.089 0.063,-0.126 0.041,-0.039 0.138,-0.075 0.29,-0.109 0.377,-0.085 0.648,-0.171 0.811,-0.259 0.163,-0.087 0.282,-0.196 0.357,-0.325 0.074,-0.129 0.111,-0.274 0.111,-0.434 0,-0.188 -0.049,-0.362 -0.149,-0.521 m -2.682,0 c -0.099,-0.158 -0.238,-0.279 -0.416,-0.361 -0.178,-0.082 -0.402,-0.123 -0.673,-0.123 -0.475,0 -0.804,0.096 -0.987,0.288 -0.183,0.192 -0.286,0.436 -0.311,0.733 l 0.822,0.054 c 0.018,-0.14 0.054,-0.247 0.109,-0.32 0.089,-0.119 0.216,-0.178 0.381,-0.178 0.123,0 0.218,0.03 0.285,0.091 0.067,0.06 0.1,0.131 0.1,0.211 0,0.076 -0.032,0.144 -0.096,0.204 -0.063,0.06 -0.21,0.117 -0.442,0.17 -0.378,0.089 -0.648,0.208 -0.81,0.356 -0.162,0.148 -0.244,0.337 -0.244,0.567 0,0.15 0.042,0.293 0.125,0.427 0.083,0.134 0.208,0.239 0.375,0.316 0.168,0.077 0.397,0.115 0.688,0.115 0.357,0 0.629,-0.069 0.816,-0.209 0.188,-0.139 0.299,-0.361 0.335,-0.665 l -0.814,-0.05 c -0.021,0.132 -0.067,0.228 -0.136,0.288 -0.069,0.06 -0.165,0.09 -0.287,0.09 -0.1,0 -0.176,-0.022 -0.227,-0.067 -0.051,-0.045 -0.076,-0.099 -0.076,-0.163 0,-0.047 0.021,-0.089 0.063,-0.126 0.04,-0.039 0.137,-0.075 0.29,-0.109 0.377,-0.085 0.647,-0.171 0.811,-0.259 0.163,-0.087 0.282,-0.196 0.356,-0.325 0.074,-0.129 0.112,-0.274 0.112,-0.434 0,-0.188 -0.05,-0.362 -0.149,-0.521 m -3.278,-0.434 -0.14,0.485 h -0.98 l -0.136,-0.485 h -3.069 v 2.934 h 0.863 v -2.211 h 1.348 v -0.655 l 1.026,2.866 h 0.942 l 1.05,-2.934 z m -4.848,0.402 c -0.109,-0.149 -0.245,-0.262 -0.407,-0.338 -0.162,-0.076 -0.368,-0.114 -0.618,-0.114 -0.304,0 -0.552,0.046 -0.745,0.139 -0.192,0.093 -0.359,0.256 -0.498,0.489 -0.14,0.233 -0.21,0.532 -0.21,0.896 0,0.486 0.123,0.859 0.369,1.119 0.246,0.261 0.594,0.391 1.044,0.391 0.352,0 0.628,-0.074 0.83,-0.224 0.201,-0.149 0.351,-0.379 0.448,-0.688 l -0.762,-0.178 c -0.027,0.089 -0.055,0.154 -0.084,0.196 -0.048,0.069 -0.107,0.122 -0.177,0.16 -0.07,0.037 -0.148,0.056 -0.235,0.056 -0.195,0 -0.345,-0.083 -0.449,-0.248 -0.079,-0.123 -0.119,-0.315 -0.119,-0.578 0,-0.325 0.047,-0.548 0.141,-0.669 0.095,-0.12 0.227,-0.18 0.397,-0.18 0.165,0 0.29,0.048 0.374,0.146 0.085,0.097 0.146,0.238 0.184,0.424 l 0.757,-0.24 c -0.051,-0.223 -0.131,-0.409 -0.24,-0.559 m -4.588,-0.402 -0.14,0.485 h -0.98 l -0.136,-0.485 h -0.882 l 1.05,2.934 h 0.942 l 1.05,-2.934 z m -2.263,0 h -0.814 l -1.046,1.611 v -1.611 h -0.812 v 2.934 h 0.806 l 1.052,-1.623 v 1.623 h 0.814 z m -3.161,0 h -0.865 v 2.934 h 0.865 z m -1.336,0 h -0.868 v 1.187 h -0.943 v -1.187 h -0.864 v 2.934 h 0.864 V 0.678 h 0.943 v 1.027 h 0.868 z m -3.201,0.402 c -0.11,-0.149 -0.245,-0.262 -0.408,-0.338 -0.162,-0.076 -0.368,-0.114 -0.618,-0.114 -0.304,0 -0.552,0.046 -0.744,0.139 -0.193,0.093 -0.359,0.256 -0.499,0.489 -0.14,0.233 -0.209,0.532 -0.209,0.896 0,0.486 0.122,0.859 0.368,1.119 0.246,0.261 0.594,0.391 1.044,0.391 0.352,0 0.629,-0.074 0.83,-0.224 0.201,-0.149 0.351,-0.379 0.449,-0.688 L -65.72,0.665 c -0.027,0.089 -0.055,0.154 -0.084,0.196 -0.049,0.069 -0.108,0.122 -0.178,0.16 -0.07,0.037 -0.148,0.056 -0.234,0.056 -0.196,0 -0.346,-0.083 -0.45,-0.248 -0.079,-0.123 -0.118,-0.315 -0.118,-0.578 0,-0.325 0.047,-0.548 0.141,-0.669 0.094,-0.12 0.226,-0.18 0.396,-0.18 0.166,0 0.291,0.048 0.375,0.146 0.084,0.097 0.146,0.238 0.184,0.424 l 0.757,-0.24 c -0.051,-0.223 -0.131,-0.409 -0.24,-0.559 m -5.593,-2.525 H 4.02 v 7.074 h -74.784 z m 40.454,3.242 h 0.614 l -0.308,1.055 z m 7.121,1.179 c -0.174,0 -0.314,-0.065 -0.419,-0.194 -0.106,-0.13 -0.158,-0.344 -0.158,-0.643 0,-0.296 0.052,-0.509 0.157,-0.638 0.105,-0.13 0.248,-0.194 0.428,-0.194 0.186,0 0.329,0.063 0.431,0.19 0.101,0.126 0.152,0.354 0.152,0.682 0,0.276 -0.053,0.478 -0.159,0.606 -0.106,0.127 -0.25,0.191 -0.432,0.191 M -56.143,-0.11 h 0.614 l -0.308,1.055 z m 9.436,0 h 0.614 l -0.308,1.055 z m 33.605,1.179 c -0.174,0 -0.314,-0.065 -0.419,-0.194 -0.106,-0.13 -0.159,-0.344 -0.159,-0.643 0,-0.296 0.053,-0.509 0.158,-0.638 0.105,-0.13 0.247,-0.194 0.428,-0.194 0.185,0 0.329,0.063 0.43,0.19 0.102,0.126 0.153,0.354 0.153,0.682 0,0.276 -0.053,0.478 -0.159,0.606 -0.106,0.127 -0.25,0.191 -0.432,0.191"
         style="fill:#00428e;fill-opacity:1;fill-rule:nonzero;stroke:none"
         transform="matrix(1.3333333,0,0,-1.3333333,864.95933,852.4492)"
         clip-path="url(#clipPath35)" />
      <path
         id="path36"
         d="M 0,0 C 0,0 0,0.43 0.451,0.43 H 4.354 V 1.686 H 5.527 V 0.43 h 3.965 c 0,0 0.431,0 0.431,-0.43 v -2.936 c 0,0 -0.062,-0.43 -0.39,-0.43 H 5.527 V -5.298 H 4.354 v 1.932 H 0.471 c 0,0 -0.473,0.083 -0.473,0.43 z m 5.527,0 v -2.936 h 2.997 c 0,0 0.266,-0.013 0.266,0.279 v 2.454 C 8.79,-0.203 8.839,0 8.499,0 Z M 4.354,0 H 1.382 c -0.34,0 -0.29,-0.203 -0.29,-0.203 v -2.454 c 0,-0.292 0.265,-0.279 0.265,-0.279 h 2.997 z"
         style="fill:#00428e;fill-opacity:1;fill-rule:evenodd;stroke:none"
         transform="matrix(1.3333333,0,0,-1.3333333,770.1064,863.0948)"
         clip-path="url(#clipPath37)" />
      <path
         id="path38"
         d="m 0,0 c 0,0 0.037,0.467 0.553,0.467 h 8.362 c 0,0 0.567,-0.013 0.567,-0.567 v -5.643 c 0,0 0.048,-0.578 -0.492,-0.578 H 0.541 c 0,0 -0.541,0.038 -0.541,0.49 z m 0.993,-0.414 v -5.021 c 0,-0.389 0.466,-0.421 0.466,-0.421 h 6.604 c 0.465,0 0.424,0.5 0.424,0.5 V -0.5 c 0,0.478 -0.49,0.488 -0.49,0.488 H 1.471 c -0.445,0 -0.478,-0.402 -0.478,-0.402"
         style="fill:#00428e;fill-opacity:1;fill-rule:evenodd;stroke:none"
         transform="matrix(1.3333333,0,0,-1.3333333,793.03867,861.76893)"
         clip-path="url(#clipPath39)" />
      <path
         id="path40"
         d="m 610.192,62.938 h 4.986 v -0.441 h -4.986 z"
         style="fill:#00428e;fill-opacity:1;fill-rule:nonzero;stroke:none"
         transform="matrix(1.3333333,0,0,-1.3333333,0,944.88133)"
         clip-path="url(#clipPath41)" />
      <path
         id="path42"
         d="m 0,0 c 0,0 0.139,0.454 0.579,0.454 h 3.3 c 0,0 0.579,-0.027 0.579,-0.467 V -2.202 H 4.835 V -2.658 H 4.458 V -5.516 H 3.387 v 2.858 H 1.083 V -5.516 H 0 v 2.858 h -0.378 v 0.465 H 0 Z m 1.083,-2.193 h 2.304 v 1.954 c 0,0 0.051,0.301 -0.277,0.301 H 1.322 c 0,0 -0.239,0.042 -0.239,-0.263 z"
         style="fill:#00428e;fill-opacity:1;fill-rule:evenodd;stroke:none"
         transform="matrix(1.3333333,0,0,-1.3333333,813.90773,862.67573)"
         clip-path="url(#clipPath43)" />
      <path
         id="path44"
         d="m 0,0 h 0.801 c 0,0 0.196,0.054 0.33,-0.343 C 1.267,-0.742 1.645,-1.94 1.645,-1.94 H 0.874 c 0,0 -0.245,-0.013 -0.368,0.367 C 0.385,-1.194 0,0 0,0"
         style="fill:#00428e;fill-opacity:1;fill-rule:nonzero;stroke:none"
         transform="matrix(1.3333333,0,0,-1.3333333,815.80787,866.76)"
         clip-path="url(#clipPath45)" />
      <path
         id="path46"
         d="m 0,0 0.695,2.766 c 0,0 0.098,0.463 0.429,0.463 h 2.27 c 0,0 0.575,0.03 0.575,-0.587 V 0.898 c 0,0 -0.025,-0.44 0.147,-0.44 H 4.635 V 0 H 3.406 c 0,0 -0.526,0.079 -0.526,0.483 v 1.945 c 0,0 0.042,0.36 -0.398,0.36 H 2.005 c 0,0 -0.331,0.041 -0.428,-0.36 C 1.479,2.025 1.001,0 1.001,0 Z"
         style="fill:#00428e;fill-opacity:1;fill-rule:nonzero;stroke:none"
         transform="matrix(1.3333333,0,0,-1.3333333,820.35427,865.30787)"
         clip-path="url(#clipPath47)" />
      <path
         id="path48"
         d="m 0,0 c 0,0 -0.03,0.502 0.416,0.502 h 3.45 c 0,0 0.307,-0.024 0.307,-0.478 v -2.453 c 0,0 -0.012,-0.454 -0.417,-0.454 h -3.31 c 0,0 -0.446,0.05 -0.446,0.454 z m 0.987,-0.306 v -1.792 c 0,-0.293 0.264,-0.243 0.264,-0.243 h 1.615 c 0.352,0 0.308,0.184 0.308,0.184 v 1.923 c 0,0.25 -0.22,0.22 -0.22,0.22 H 1.236 c -0.263,0 -0.249,-0.292 -0.249,-0.292"
         style="fill:#00428e;fill-opacity:1;fill-rule:evenodd;stroke:none"
         transform="matrix(1.3333333,0,0,-1.3333333,820.65427,866.3532)"
         clip-path="url(#clipPath49)" />
      <path
         id="path50"
         d="m 0,0 h -2.611 c 0,0 -0.542,0 -0.659,-0.426 -0.134,-0.484 -0.428,-1.38 -0.428,-1.38 0,0 -0.105,-0.676 0.337,-0.676 0,0 0.327,0.063 0.178,-0.292 -0.149,-0.354 -0.53,-1.205 -0.53,-1.205 0,0 -0.237,-0.646 0.366,-0.646 H 0 v 0.442 h -2.656 c 0,0 -0.175,-0.088 -0.014,0.25 0.162,0.336 0.66,1.393 0.66,1.393 h 1.878 v 0.426 h -2.406 c 0,0 -0.19,0 -0.147,0.263 0.044,0.265 0.294,1.116 0.294,1.116 0,0 0.044,0.309 0.352,0.309 H 0 Z"
         style="fill:#00428e;fill-opacity:1;fill-rule:nonzero;stroke:none"
         transform="matrix(1.3333333,0,0,-1.3333333,841.24347,861.1464)"
         clip-path="url(#clipPath51)" />
      <path
         id="path52"
         d="m 0,0 v -0.705 l 3.961,0.676 v 0.658 z"
         style="fill:#00428e;fill-opacity:1;fill-rule:nonzero;stroke:none"
         transform="matrix(1.3333333,0,0,-1.3333333,835.96147,869.1696)"
         clip-path="url(#clipPath53)" />
      <path
         id="path54"
         d="M 0,0 C 0,0 0.046,0.527 0.516,0.527 H 4.58 C 4.58,0.527 5.313,0.514 5.093,0 4.873,-0.513 4.611,-1.146 4.185,-1.687 h 0.937 c 0,0 0.572,-0.061 0.338,-0.824 -0.235,-0.763 -0.658,-1.587 -1.335,-2.157 0,0 0.746,-0.835 1.614,-1.599 H 4.594 c 0,0 -0.778,0.647 -1.116,0.969 0,0 -0.525,-0.614 -1.011,-0.983 H 1.233 c 0,0 1.073,0.936 1.717,1.643 0,0 -0.984,0.951 -1.365,1.864 h 1.073 c 0,0 0.188,-0.806 0.879,-1.248 0,0 0.765,0.544 1.014,1.527 0,0 0.134,0.381 -0.293,0.381 H 1.615 v 0.427 h 1.453 c 0,0 0.569,0.47 0.953,1.48 0,0 0.22,0.324 -0.293,0.324 H 1.336 c 0,0 -0.249,0.029 -0.249,-0.308 V -6.267 H 0 Z"
         style="fill:#00428e;fill-opacity:1;fill-rule:nonzero;stroke:none"
         transform="matrix(1.3333333,0,0,-1.3333333,841.85027,861.71467)"
         clip-path="url(#clipPath55)" />
      <path
         id="path56"
         d="m 0,0 v 0.426 h 3.978 c 0,0 0.572,-0.044 0.307,-0.675 -0.109,-0.26 -1.189,-1.233 -1.511,-1.424 v -3.418 h -1.07 v 2.656 c 0,0 -0.926,-0.808 -1.645,-1.131 v 0.985 c 0,0 1.043,0.483 3.054,2.406 0,0 0.295,0.175 -0.073,0.175 z"
         style="fill:#00428e;fill-opacity:1;fill-rule:nonzero;stroke:none"
         transform="matrix(1.3333333,0,0,-1.3333333,856.56467,863.28253)"
         clip-path="url(#clipPath57)" />
      <path
         id="path58"
         d="m 0,0 h 0.763 c 0,0 0.248,0 0.365,-0.264 0.118,-0.263 0.721,-1.454 0.721,-1.454 H 1.202 c 0,0 -0.308,0.002 -0.483,0.324 C 0.543,-1.071 0,0 0,0"
         style="fill:#00428e;fill-opacity:1;fill-rule:nonzero;stroke:none"
         transform="matrix(1.3333333,0,0,-1.3333333,860.7544,865.4536)"
         clip-path="url(#clipPath59)" />
      <path
         id="path60"
         d="m 642.6,62.712 h 4.036 v -0.41 H 642.6 Z"
         style="fill:#00428e;fill-opacity:1;fill-rule:nonzero;stroke:none"
         transform="matrix(1.3333333,0,0,-1.3333333,0,944.88133)"
         clip-path="url(#clipPath61)" />
      <path
         id="path62"
         d="M 0,0 H 1.19 V -1.936 H 3.185 V -2.362 H 1.19 v -3.89 h 1.995 v -0.512 h -5.269 v 0.512 H 0 v 3.89 h -1.967 v 0.426 H 0 Z"
         style="fill:#00428e;fill-opacity:1;fill-rule:nonzero;stroke:none"
         transform="matrix(1.3333333,0,0,-1.3333333,865.37013,861.01147)"
         clip-path="url(#clipPath63)" />
      <path
         id="path64"
         d="M 0,0 H 6.083 V -0.453 H 3.462 V -1.914 H 5.956 V -2.416 H 3.462 v -1.676 h 2.67 v -0.492 h -6.22 v 0.492 h 2.355 v 1.676 H 0.101 v 0.502 h 2.166 v 1.461 H 0 Z"
         style="fill:#00428e;fill-opacity:1;fill-rule:nonzero;stroke:none"
         transform="matrix(1.3333333,0,0,-1.3333333,795.38853,862.5932)"
         clip-path="url(#clipPath65)" />
      <path
         id="path66"
         d="M 0,0 H 1.007 L 1.824,-1.247 H 0.767 Z"
         style="fill:#00428e;fill-opacity:1;fill-rule:nonzero;stroke:none"
         transform="matrix(1.3333333,0,0,-1.3333333,800.45947,866.10253)"
         clip-path="url(#clipPath67)" />
      <path
         id="path68"
         d="m 0,0 h 0.789 c 0,0 0.221,0.026 0.355,-0.379 0.135,-0.404 0.392,-1.205 0.392,-1.205 h -0.71 c 0,0 -0.281,-0.056 -0.417,0.311 C 0.275,-0.904 0,0 0,0"
         style="fill:#00428e;fill-opacity:1;fill-rule:nonzero;stroke:none"
         transform="matrix(1.3333333,0,0,-1.3333333,815.7912,863.1316)"
         clip-path="url(#clipPath69)" />
    </g>
  </g>
</svg>
