<?xml version="1.0" encoding="utf-8"?>
<!-- Generator: Adobe Illustrator 23.0.1, SVG Export Plug-In . SVG Version: 6.00 Build 0)  -->
<!DOCTYPE svg PUBLIC "-//W3C//DTD SVG 1.1//EN" "http://www.w3.org/Graphics/SVG/1.1/DTD/svg11.dtd" [
	<!ENTITY ns_extend "http://ns.adobe.com/Extensibility/1.0/">
	<!ENTITY ns_ai "http://ns.adobe.com/AdobeIllustrator/10.0/">
	<!ENTITY ns_graphs "http://ns.adobe.com/Graphs/1.0/">
	<!ENTITY ns_vars "http://ns.adobe.com/Variables/1.0/">
	<!ENTITY ns_imrep "http://ns.adobe.com/ImageReplacement/1.0/">
	<!ENTITY ns_sfw "http://ns.adobe.com/SaveForWeb/1.0/">
	<!ENTITY ns_custom "http://ns.adobe.com/GenericCustomNamespace/1.0/">
	<!ENTITY ns_adobe_xpath "http://ns.adobe.com/XPath/1.0/">
]>
<svg version="1.1" id="Livello_1" xmlns:x="&ns_extend;" xmlns:i="&ns_ai;" xmlns:graph="&ns_graphs;"
	 xmlns="http://www.w3.org/2000/svg" xmlns:xlink="http://www.w3.org/1999/xlink" x="0px" y="0px" viewBox="0 0 651.3 500"
	 enable-background="new 0 0 651.3 500" xml:space="preserve">
<metadata>
	<sfw  xmlns="&ns_sfw;">
		<slices></slices>
		<sliceSourceBounds  bottomLeftOrigin="true" height="500" width="651.3" x="170.8" y="449.9"></sliceSourceBounds>
	</sfw>
</metadata>
<g>
	<path fill="#000033" d="M45.4,184.2h90.9v43H45.4V184.2z M193.4,363.6l-66.7-88.5h9.6c25.1,0,45.5-20.4,45.5-45.5v-47.9
		c0-25.1-20.4-45.5-45.5-45.5H0v227.3h45.4v-88.5h24.6H70l66.5,88.5H193.4z M230.9,363.6h45.5V136.4h-45.5V363.6z M605.8,227.3
		h-90.9v-43h90.9V227.3z M605.8,363.6h45.5V181.8c0-25.1-20.4-45.5-45.5-45.5H469.5v227.3h45.5v-88.5h90.9V363.6z"/>
	<g>
		
			<linearGradient id="SVGID_1_" gradientUnits="userSpaceOnUse" x1="-173.16" y1="950.4296" x2="-167.3785" y2="950.4296" gradientTransform="matrix(0 -86.4819 86.4819 0 -81818.3047 -14475.2129)">
			<stop  offset="0" style="stop-color:#007CAB"/>
			<stop  offset="0.2933" style="stop-color:#008BB6"/>
			<stop  offset="0.8515" style="stop-color:#00B1D2"/>
			<stop  offset="1" style="stop-color:#00BCDA"/>
		</linearGradient>
		<polygon fill="url(#SVGID_1_)" points="325.4,500 427.9,363.6 325.4,227.3 		"/>
		
			<linearGradient id="SVGID_2_" gradientUnits="userSpaceOnUse" x1="-173.1601" y1="950.3428" x2="-167.3785" y2="950.3428" gradientTransform="matrix(0 -86.4819 86.4819 0 -81818.3047 -14475.2129)">
			<stop  offset="0" style="stop-color:#007CAB"/>
			<stop  offset="0.2933" style="stop-color:#008BB6"/>
			<stop  offset="0.8515" style="stop-color:#00B1D2"/>
			<stop  offset="1" style="stop-color:#00BCDA"/>
		</linearGradient>
		<polygon fill="url(#SVGID_2_)" points="420.4,0 420.4,0 317.9,136.4 420.4,272.7 		"/>
	</g>
</g>
</svg>
